<?xml version="1.0" standalone="no"?><!DOCTYPE svg PUBLIC "-//W3C//DTD SVG 1.1//EN" "http://www.w3.org/Graphics/SVG/1.1/DTD/svg11.dtd"><svg t="1655905915848" class="icon" viewBox="0 0 1024 1024" version="1.1" xmlns="http://www.w3.org/2000/svg" p-id="1261" xmlns:xlink="http://www.w3.org/1999/xlink" width="200" height="200"><defs><style type="text/css">@font-face { font-family: feedback-iconfont; src: url("//at.alicdn.com/t/font_1031158_u69w8yhxdu.woff2?t=1630033759944") format("woff2"), url("//at.alicdn.com/t/font_1031158_u69w8yhxdu.woff?t=1630033759944") format("woff"), url("//at.alicdn.com/t/font_1031158_u69w8yhxdu.ttf?t=1630033759944") format("truetype"); }
</style></defs><path d="M0 0m113.777778 0l796.444444 0q113.777778 0 113.777778 113.777778l0 796.444444q0 113.777778-113.777778 113.777778l-796.444444 0q-113.777778 0-113.777778-113.777778l0-796.444444q0-113.777778 113.777778-113.777778Z" fill="#DAAFB8" p-id="1262"></path><path d="M356.731259 561.645037m-84.043852 0a84.043852 84.043852 0 1 0 168.087704 0 84.043852 84.043852 0 1 0-168.087704 0Z" fill="#6477B3" p-id="1263"></path><path d="M667.268741 561.645037m-84.043852 0a84.043852 84.043852 0 1 0 168.087704 0 84.043852 84.043852 0 1 0-168.087704 0Z" fill="#6477B3" p-id="1264"></path><path d="M592.289185 686.231704s4.854519-46.26963 5.992296-49.607111c-1.972148 1.592889-7.585185 4.93037-9.367703 6.637037-12.174222 10.884741-44.22163 14.601481-76.913778 13.767111-32.692148 0.83437-64.739556-2.88237-76.913778-13.767111-1.896296-1.706667-7.585185-5.044148-9.367703-6.637037 1.137778 3.337481 6.030222 49.645037 5.992296 49.607111 1.21363 84.726519-12.47763 96.862815-19.304296 124.73837 21.731556 44.069926 53.285926 86.888296 75.017481 130.958222 4.702815 9.519407 14.904889 11.719111 21.541926 18.62163v3.792593l2.351407 1.289481c0.227556-0.455111 0.493037-0.83437 0.720593-1.251556 0.227556 0.417185 0.493037 0.796444 0.720593 1.251556l2.351407-1.289481v-3.792593c6.637037-6.902519 16.839111-9.102222 21.541926-18.62163 21.731556-44.069926 53.285926-86.888296 75.017481-130.958222-6.902519-27.875556-20.593778-40.011852-19.380148-124.73837z" fill="#FED0B9" p-id="1265"></path><path d="M684.752593 481.659259c-13.084444-0.796444-17.863111 16.57363-23.627852 28.065185 25.6-65.118815-0.910222-151.021037-35.84-181.323851-28.330667-24.462222-70.618074-36.370963-113.284741-36.712297-42.666667 0.455111-84.954074 12.250074-113.284741 36.826074-34.929778 30.340741-61.44 116.205037-35.84 181.323852-5.764741-11.377778-10.543407-28.86163-23.627852-28.065185-41.415111 2.503111-32.085333 51.730963-22.262518 70.162963s28.634074 32.805926 49.758815 33.716148a11.832889 11.832889 0 0 1 7.281777 1.668741 9.671111 9.671111 0 0 1 2.730667 4.702815c15.777185 46.724741 41.718519 79.644444 132.740741 84.726518a6.33363 6.33363 0 0 1 5.082074 0c91.022222-4.968296 116.92563-37.925926 132.740741-84.726518a9.671111 9.671111 0 0 1 2.730666-4.702815 11.832889 11.832889 0 0 1 7.281778-1.668741c21.124741-0.910222 39.973926-15.397926 49.758815-33.716148s19.076741-67.659852-22.33837-70.276741z" fill="#FEE1D2" p-id="1266"></path><path d="M364.088889 507.866074c0.568889-9.784889 23.134815-32.161185 42.477037-45.511111h15.17037l1.251556-2.958222 15.397926-37.015704-7.281778 41.718519a83.437037 83.437037 0 0 0 24.917333 1.820444l0.644741-42.211556L463.454815 466.488889a689.265778 689.265778 0 0 0 166.456889-2.351408s29.316741 31.706074 32.312889 46.838519a1.099852 1.099852 0 0 0 2.048 0.303407c4.171852-7.585185 10.619259-28.141037 27.192888-28.444444 0 0 38.115556-205.937778-176.431407-206.544593-223.194074-0.644741-182.044444 205.520593-182.044444 205.520593s18.583704 2.88237 29.202963 26.244741a1.099852 1.099852 0 0 0 1.896296-0.18963z" fill="#6477B3" p-id="1267"></path><path d="M593.692444 697.040593c-5.499259 24.576-31.630222 55.409778-79.644444 55.409777s-82.223407-30.833778-83.437037-55.409777c-113.777778 19.873185-219.401481 119.125333-219.401482 238.667851V1024h601.884445v-88.291556c0-119.542519-105.547852-218.908444-219.401482-238.667851z" fill="#FFFFFF" p-id="1268"></path><path d="M653.994667 715.282963v102.4H370.005333v-103.158519a283.041185 283.041185 0 0 0-50.896592 28.292741V1024h385.782518v-280.234667a287.630222 287.630222 0 0 0-50.896592-28.48237z" fill="#F195AE" p-id="1269"></path><path d="M373.608296 864.180148m-22.869333 0a22.869333 22.869333 0 1 0 45.738667 0 22.869333 22.869333 0 1 0-45.738667 0Z" fill="#F16C90" p-id="1270"></path><path d="M650.391704 864.180148m-22.869334 0a22.869333 22.869333 0 1 0 45.738667 0 22.869333 22.869333 0 1 0-45.738667 0Z" fill="#F16C90" p-id="1271"></path></svg>