<?xml version="1.0" standalone="no"?><!DOCTYPE svg PUBLIC "-//W3C//DTD SVG 1.1//EN" "http://www.w3.org/Graphics/SVG/1.1/DTD/svg11.dtd"><svg t="1655905943514" class="icon" viewBox="0 0 1024 1024" version="1.1" xmlns="http://www.w3.org/2000/svg" p-id="1595" xmlns:xlink="http://www.w3.org/1999/xlink" width="200" height="200"><defs><style type="text/css">@font-face { font-family: feedback-iconfont; src: url("//at.alicdn.com/t/font_1031158_u69w8yhxdu.woff2?t=1630033759944") format("woff2"), url("//at.alicdn.com/t/font_1031158_u69w8yhxdu.woff?t=1630033759944") format("woff"), url("//at.alicdn.com/t/font_1031158_u69w8yhxdu.ttf?t=1630033759944") format("truetype"); }
</style></defs><path d="M0 0m113.777778 0l796.444444 0q113.777778 0 113.777778 113.777778l0 796.444444q0 113.777778-113.777778 113.777778l-796.444444 0q-113.777778 0-113.777778-113.777778l0-796.444444q0-113.777778 113.777778-113.777778Z" fill="#F7E094" p-id="1596"></path><path d="M418.095407 517.12s-71.338667-0.83437-55.864888 44.183704c0 0-48.241778-5.233778-44.638815 33.261037 0 0-39.215407 2.616889-36.788148 42.477037 0 0-29.354667-4.664889-31.175112 27.875555l-43.994074 14.298074 51.427556 55.789037 14.298074-42.62874s35.574519-2.23763 36.788148-27.989334c0 0 45.207704-3.489185 37.394963-43.197629 0 0 42.401185 9.898667 46.042074-30.833778 0 0 50.441481 10.770963 50.441482-44.069926zM607.080296 517.12s71.338667-0.83437 55.864889 44.259556c0 0 48.241778-5.233778 44.638815 33.261037 0 0 39.215407 2.616889 36.788148 42.477037 0 0 29.354667-4.664889 31.175111 27.875555l44.032 14.298074-51.465481 55.789037-14.298074-42.62874s-35.574519-2.23763-36.788148-27.989334c0 0-45.207704-3.489185-37.394963-43.197629 0 0-42.401185 9.898667-46.042074-30.833778 0 0-50.441481 10.770963-50.441482-44.069926z" fill="#946642" p-id="1597"></path><path d="M592.289185 662.452148s4.854519-46.26963 5.992296-49.607111c-1.972148 1.630815-7.585185 4.93037-9.367703 6.674963-12.174222 10.846815-44.22163 14.563556-76.913778 13.729185-32.692148 0.83437-64.739556-2.88237-76.913778-13.729185-1.896296-1.744593-7.585185-5.044148-9.367703-6.674963 1.137778 3.337481 6.030222 49.645037 5.992296 49.607111 1.21363 84.726519-12.47763 96.900741-19.304296 124.738371 21.731556 44.107852 53.285926 86.888296 75.017481 130.958222 4.702815 9.519407 14.904889 11.719111 21.541926 18.659555v3.792593l2.351407 1.289481 0.720593-1.213629 0.720593 1.213629 2.351407-1.289481v-3.792593c6.637037-6.940444 16.839111-9.140148 21.541926-18.659555 21.731556-44.069926 53.285926-86.85037 75.017481-130.958222-6.902519-27.83763-20.593778-40.049778-19.380148-124.738371z" fill="#FED0B9" p-id="1598"></path><path d="M593.692444 716.003556c-5.499259 24.576-33.526519 44.032-81.692444 44.032s-76.193185-19.456-81.692444-44.032C228.693333 756.318815 191.943111 1024 191.943111 1024h640.113778s-36.750222-267.681185-238.364445-307.996444z" fill="#C28CC0" p-id="1599"></path><path d="M684.752593 476.956444c-13.084444-0.796444-17.863111 16.57363-23.627852 28.065186 25.6-65.080889-0.910222-132.058074-35.84-162.360889-28.330667-24.538074-70.618074-36.370963-113.284741-36.826074-42.666667 0.455111-84.954074 12.288-113.284741 36.826074-34.929778 30.340741-61.44 97.28-35.84 162.360889-5.764741-11.377778-10.543407-28.86163-23.627852-28.065186-41.415111 2.541037-32.085333 51.730963-22.262518 70.200889s28.634074 32.805926 49.758815 33.678223a12.363852 12.363852 0 0 1 7.281777 1.66874 9.784889 9.784889 0 0 1 2.730667 4.740741c15.777185 46.686815 41.718519 98.607407 132.740741 103.689482a5.95437 5.95437 0 0 1 5.082074 0c91.022222-5.006222 116.92563-56.888889 132.740741-103.689482a9.784889 9.784889 0 0 1 2.730666-4.740741 12.363852 12.363852 0 0 1 7.281778-1.66874c21.124741-0.872296 39.973926-15.397926 49.758815-33.678223s19.076741-67.659852-22.33837-70.200889z" fill="#FEE1D2" p-id="1600"></path><path d="M512 755.977481s-60.340148 84.764444-117.266963 55.637334-78.923852-68.266667-78.923852-68.266667 72.779852-33.261037 112.602074-32.199111c0.151704 0.113778 26.699852 37.736296 83.588741 44.828444zM512 755.977481s60.340148 84.764444 117.266963 55.599408 78.923852-68.266667 78.923852-68.266667-72.779852-33.261037-112.602074-32.199111c-0.151704 0.151704-26.699852 37.774222-83.588741 44.86637z" fill="#FFFFFF" p-id="1601"></path><path d="M661.921185 295.480889C599.22963 233.965037 552.429037 239.767704 512.606815 239.767704s-86.546963-5.802667-149.352296 55.713185c-56.888889 55.902815-42.249481 188.150519-42.249482 188.150518 29.696-17.749333 41.263407 16.19437 41.263407 16.194371 96.976593-22.33837 136.267852-74.524444 150.338371-100.807111 14.032593 26.282667 53.323852 78.468741 150.300444 100.807111 0 0 11.567407-33.943704 41.263408-16.194371 0 0 14.829037-132.247704-42.249482-188.150518z" fill="#946642" p-id="1602"></path></svg>