<?xml version="1.0" standalone="no"?><!DOCTYPE svg PUBLIC "-//W3C//DTD SVG 1.1//EN" "http://www.w3.org/Graphics/SVG/1.1/DTD/svg11.dtd"><svg t="1655905702733" class="icon" viewBox="0 0 1024 1024" version="1.1" xmlns="http://www.w3.org/2000/svg" p-id="1092" xmlns:xlink="http://www.w3.org/1999/xlink" width="200" height="200"><defs><style type="text/css">@font-face { font-family: feedback-iconfont; src: url("//at.alicdn.com/t/font_1031158_u69w8yhxdu.woff2?t=1630033759944") format("woff2"), url("//at.alicdn.com/t/font_1031158_u69w8yhxdu.woff?t=1630033759944") format("woff"), url("//at.alicdn.com/t/font_1031158_u69w8yhxdu.ttf?t=1630033759944") format("truetype"); }
</style></defs><path d="M2.603582 0m113.190862 0l792.336035 0q113.190862 0 113.190862 113.190862l0 792.336036q0 113.190862-113.190862 113.190862l-792.336035 0q-113.190862 0-113.190862-113.190862l0-792.336036q0-113.190862 113.190862-113.190862Z" fill="#EEBCD7" p-id="1093"></path><path d="M591.196065 621.832867s4.829477-46.030951 5.961386-49.313486c-1.961975 1.584672-7.546057 4.904937-9.281651 6.6028-11.998231 10.828592-43.729403 14.526161-76.026529 13.696095-32.297126 0.830066-64.141489-2.867502-76.026529-13.696095-1.886514-1.697863-7.319676-5.018128-9.281651-6.6028 1.131909 3.282535 5.961385 49.388946 5.961385 49.313486 1.169639 84.327192-12.375534 96.400884-19.129255 124.132645 21.506264 43.842594 52.822402 86.402358 74.177745 130.282683 4.640825 9.470302 14.752542 11.658659 21.317612 18.525571v3.773028l2.339278 1.28283a13.09241 13.09241 0 0 1 0.679145-1.245099 13.09241 13.09241 0 0 1 0.679145 1.245099l2.339278-1.28283v-3.773028c6.56507-6.866912 16.676787-9.055269 21.317612-18.525571 21.468534-43.880324 52.822402-86.440088 74.177745-130.282683-6.715991-27.731761-20.261164-39.805453-19.204716-124.132645z" fill="#FACDAC" p-id="1094"></path><path d="M680.994149 469.062933c-11.620929 5.697273-17.997347 10.300368-23.090936 22.223139 14.601621-64.481061 9.20619-136.206338-47.804274-168.729845-59.840236-33.957259-159.070892-32.86308-210.610464 12.866028-33.957259 30.18423-59.689315 91.118644-34.825055 155.863817-5.621813-11.319086-10.224908-23.015475-22.940015-22.223139-40.220486 2.490199-31.165217 51.426382-21.619455 69.801032s27.807222 32.636699 48.332498 33.504495a11.696389 11.696389 0 0 1 7.093294 1.697863 9.809875 9.809875 0 0 1 2.64112 4.678555c10.677671 32.448047 20.600737 59.538394 48.332499 81.912454s64.820634 37.202063 101.381282 31.127487c43.238909-7.168755 87.270155-34.674134 102.815033-77.384819 4.791746-13.16787 3.282535-32.523508 17.469123-40.107296a25.015181 25.015181 0 0 1 8.187472-1.961974c21.091231-3.282535 37.730287-18.676492 46.936478-37.352985a80.629624 80.629624 0 0 0 8.640236-42.446573c-1.584672-17.431393-19.506559-29.090052-30.938836-23.468239z" fill="#FFE7D5" p-id="1095"></path><path d="M597.08199 699.821371c12.866028 30.712454-33.051732 80.13913-85.119528 80.13913s-99.268386-40.371408-85.119529-80.13913c-56.369049 24.222845-98.40059 45.276345-139.602063 73.234488 12.337804 47.049668 16.676787 130.773176 33.579956 162.240235 11.319086 20.94031 13.016949 56.595431 11.734119 88.552985h358.43773c-1.245099-32.033014 0.528224-67.612675 11.73412-88.552985 16.903169-31.54252 21.279882-115.266028 33.579955-162.240235" fill="#9DB4EB" p-id="1096"></path><path d="M409.222889 763.132793s61.123066 166.76787 102.588651 170.918202c0 0 72.517612-37.428445 101.683125-172.163302l-104.96566-15.620339z" fill="#E9F4FC" p-id="1097"></path><path d="M419.86283 707.59381s37.466175 40.258217 92.099632 44.446278c0 0-35.994694 47.615623-59.802506 46.181872 0 0-146.355785-46.785556-32.297126-90.62815zM604.062093 707.59381s-37.466175 40.258217-92.099631 44.446278c0 0 35.994694 47.615623 59.802505 46.181872 0 0 146.355785-46.785556 32.297126-90.62815z" fill="#FFFFFF" p-id="1098"></path><path d="M502.378969 752.983346s-54.180693 7.244215-54.520266 32.86308 1.811054 50.558585 1.811054 50.558585 46.181872-28.184525 58.104643-67.537214z" fill="#C28CC0" p-id="1099"></path><path d="M503.812719 747.05969s-50.558585-49.464407-62.443625-10.828592 39.692262 35.39101 65.68843 24.185114zM521.545955 752.983346s54.180693 7.244215 54.520265 32.86308-1.811054 50.558585-1.811054 50.558585-46.181872-28.184525-58.104643-67.537214z" fill="#C28CC0" p-id="1100"></path><path d="M520.112204 747.05969s50.558585-49.464407 62.443625-10.828592-39.692262 35.39101-65.68843 24.185114z" fill="#C28CC0" p-id="1101"></path><path d="M511.962462 758.076934m-17.280472 0a17.280472 17.280472 0 1 0 34.560943 0 17.280472 17.280472 0 1 0-34.560943 0Z" fill="#C28CC0" p-id="1102"></path><path d="M425.673294 697.746205s8.942078 175.143994 86.138246 236.30479c0 0-76.026529-0.188651-141.941341-106.814444l29.014591-30.448342-55.388062-17.393662s-2.075166-50.520855 82.176566-81.648342zM597.949787 697.746205s-8.904348 175.143994-86.138247 236.30479c0 0 76.026529-0.188651 141.941342-106.814444l-29.014591-30.448342 55.388062-17.393662s2.075166-50.520855-82.176566-81.648342z" fill="#82A0E8" p-id="1103"></path><path d="M320.858556 935.371555c-16.903169-31.54252-21.242152-115.266028-33.579956-162.240236-46.521444 31.50479-117.341194 250.868681-117.341194 250.868681h162.655269c1.28283-32.108475-0.528224-67.688136-11.734119-88.628445zM702.764525 935.371555c16.903169-31.54252 21.279882-115.266028 33.579956-162.240236 46.521444 31.50479 117.378924 250.868681 117.378924 250.868681h-162.692999c-1.245099-32.108475 0.528224-67.688136 11.734119-88.628445z" fill="#E9F4FC" p-id="1104"></path><path d="M514.679042 243.360354m-81.120118 0a81.120118 81.120118 0 1 0 162.240236 0 81.120118 81.120118 0 1 0-162.240236 0Z" fill="#553930" p-id="1105"></path><path d="M672.467104 341.798674c-25.807517-65.462049-117.265733-85.798674-161.52336-85.798674s-140.809433 21.128961-161.523361 85.798674c-23.845542 74.290936-13.545173 126.396463-13.545173 126.396462s38.862196 9.734414 34.787325 60.36846c-2.075166 25.581135-17.431393 44.5972-6.150037 69.197347a65.160206 65.160206 0 0 1 11.319087-43.804863c15.092115-21.770376 22.223139-81.950184 19.997052-102.173619 0 0 70.291525 13.469713 115.190567 13.469713s115.190567-13.469713 115.190568-13.469713c-2.226087 20.223434-4.414444 52.822402 7.546057 76.517023 22.638172 44.068976 6.338688 73.045836 6.338689 73.045837 26.411201-33.579956 7.88563-44.63493 9.092999-70.291526 2.64112-56.595431 36.824761-62.820929 36.82476-62.820928s15.092115-53.87885-13.545173-126.434193z" fill="#7D5C55" p-id="1106"></path></svg>