<?xml version="1.0" standalone="no"?><!DOCTYPE svg PUBLIC "-//W3C//DTD SVG 1.1//EN" "http://www.w3.org/Graphics/SVG/1.1/DTD/svg11.dtd"><svg t="1655906027443" class="icon" viewBox="0 0 1024 1024" version="1.1" xmlns="http://www.w3.org/2000/svg" p-id="2755" xmlns:xlink="http://www.w3.org/1999/xlink" width="200" height="200"><defs><style type="text/css">@font-face { font-family: feedback-iconfont; src: url("//at.alicdn.com/t/font_1031158_u69w8yhxdu.woff2?t=1630033759944") format("woff2"), url("//at.alicdn.com/t/font_1031158_u69w8yhxdu.woff?t=1630033759944") format("woff"), url("//at.alicdn.com/t/font_1031158_u69w8yhxdu.ttf?t=1630033759944") format("truetype"); }
</style></defs><path d="M0 0m113.760924 0l796.32647 0q113.760924 0 113.760925 113.760924l0 796.32647q0 113.760924-113.760925 113.760925l-796.32647 0q-113.760924 0-113.760924-113.760925l0-796.32647q0-113.760924 113.760924-113.760924Z" fill="#BF8DC0" p-id="2756"></path><path d="M536.382758 753.893645c-2.388979-0.796326-5.043401-2.768182-5.991409-0.910087-2.578581 5.043401-11.376092 8.418308-12.589542 13.916753a58.169753 58.169753 0 0 1-3.792031 24.306918c-2.995704 8.532069-4.89172 8.683751-9.821359 16.609095-5.612206 0 2.085617 9.328396-0.530885 6.18101-11.641535-14.106355-22.752185-28.705673-33.900755-43.07747a234.764627 234.764627 0 0 1-21.955859-29.53992 7.584062 7.584062 0 0 0-1.25137-1.440972 21.121612 21.121612 0 0 1-3.792031-4.96756 7.584062 7.584062 0 0 0-1.28929-1.403052 14.144275 14.144275 0 0 1-4.095393-6.901496c-3.336987-4.588357-7.242779-8.759591-10.921049-13.120426-1.630573-1.896015-3.336987-4.702118-6.825656-3.033625 0.417123 3.223226-6.256851-1.858095-8.304547-0.530884 0 0-16.00237 9.745519-24.57236 13.765071-31.815138 14.902681-61.999704 28.212709-96.583024 33.407792-135.110058 23.093468-148.988891 198.967857-161.692194 266.693527h407.45371v-256.720486a16.760776 16.760776 0 0 1 1.327211-9.973041c0.872167-1.403051 0.796326-2.540661-0.872167-3.261147z" fill="#C4E4DE" p-id="2757"></path><path d="M534.448822 753.893645c2.4269-0.796326 3.792031 0.682566 4.92964 2.578581a66.853503 66.853503 0 0 1 5.384684 15.92653c-0.530884 8.418308 9.252555 11.03481 12.134499 18.960154 2.995704 8.532069 4.89172 8.683751 9.783439 16.609095 5.612206 0-2.085617 9.328396 0.530885 6.18101 11.603614-14.106355 22.524663-28.705673 33.749074-43.07747a230.555473 230.555473 0 0 0 21.880018-29.53992 6.636054 6.636054 0 0 1 1.28929-1.440972 20.96993 20.96993 0 0 0 3.792031-4.96756 6.446452 6.446452 0 0 1 1.28929-1.403052 13.802992 13.802992 0 0 0 4.057473-6.901496c3.336987-4.588357 7.242779-8.759591 10.921049-13.120426 1.592653-1.896015 3.299067-4.702118 6.787735-3.033625-0.417123 3.223226 6.18101-1.858095 8.266627-0.530884 0 0 15.926529 9.745519 24.458599 13.765072 31.701378 14.902681 61.734262 28.212709 96.165901 33.407791 134.351652 23.093468 148.192564 198.967857 160.857947 266.693527h-405.747296v-256.720486a16.495334 16.495334 0 0 0-1.365131-9.973041c-0.872167-1.554733-0.796326-2.692342 0.834246-3.412828z" fill="#BFDFDA" p-id="2758"></path><path d="M681.731299 383.412235c2.919864-36.668938 1.516812-73.034513-8.64583-108.603762a102.839876 102.839876 0 0 0-30.75337-50.054807c-9.480077-8.342468-20.704488-13.992594-31.435935-20.401126-25.368686-11.07273-52.102503-14.371797-79.632647-13.802992a186.719597 186.719597 0 0 0-71.555622 10.807288 33.483632 33.483632 0 0 0-3.792031 1.061769c-40.536809 15.168123-67.64983 43.911717-83.424678 83.424677-14.675159 36.479336-18.960154 74.703007-18.012146 113.760925a1170.751592 1170.751592 0 0 1-13.765072 212.99837c-0.758406 4.474596 0 4.133314 4.740039 5.953489 34.50748 13.840912 102.650274 17.405421 106.176863 5.157162a241.741964 241.741964 0 0 0 2.957784-29.198638 9.707599 9.707599 0 0 0-3.299067-7.925344 224.753666 224.753666 0 0 1-45.50437-87.785513 8.001185 8.001185 0 0 0-3.526589-5.612206 5.384684 5.384684 0 0 0-5.081321 0.379203c-7.166938 3.602429-7.166938 3.602429-10.845208-3.033624a9.025033 9.025033 0 0 1-1.289291-4.512517 119.448971 119.448971 0 0 0-7.129017-44.935565 149.519775 149.519775 0 0 1-5.157162-18.960154c-0.492964-2.806103-0.720486-5.650126 2.123537-7.31862s4.740039 0 6.749815 1.782255a12.36202 12.36202 0 0 0 3.185306 2.351059c2.730262 9.85928 4.740039 19.908162 7.584061 29.767442 0.834247 2.919864 1.630573 5.839727 5.498445 5.953488 4.740039-5.877648 4.133314-13.120427 5.081321-19.946082s1.516812-13.423789 2.768183-20.059843a71.138498 71.138498 0 0 0-0.758406 14.485558c0.606725 6.522293 2.995704 8.342468 9.517997 7.204858a58.814398 58.814398 0 0 0 6.560213-1.933935 594.021626 594.021626 0 0 0 61.582581-22.752185 255.772478 255.772478 0 0 0 47.552066-25.444527c2.123537-1.516812 4.777959-2.654422 5.043401-5.308843 2.881943 1.516812 5.308843-0.455044 7.584061-2.085617 18.960154-13.53755 36.289735-28.402311 46.224856-50.130647 2.313139-4.96756 5.422604-5.688046 9.78344-2.844023a106.404385 106.404385 0 0 1 20.93201 16.419493c19.64272 21.387054 33.900755 45.50437 39.095837 74.740927a343.065027 343.065027 0 0 1 3.033625 34.621242c1.061769 1.516812 1.858095 3.374907 4.209154 3.261146 3.526589-0.948008 4.019553-4.019553 4.815879-6.863576 2.616501-9.669679 4.702118-19.491038 7.31862-29.160717a13.878833 13.878833 0 0 1-0.455044-5.422604 142.80788 142.80788 0 0 0 3.943712-30.032884z m-274.42927 23.662272c0-0.758406 0.379203-1.516812 0.606725-2.275218s0-1.744334 0-1.858095a5.839727 5.839727 0 0 1-0.606725 4.133313z" fill="#5D1F1D" p-id="2759"></path><path d="M675.398608 418.336839c-1.630573-5.308843 0.606725-10.276403 1.28929-15.395645a354.934084 354.934084 0 0 0 2.616501-68.9012c-1.403051-24.117316-4.512517-48.082951-14.030514-70.759295A109.134647 109.134647 0 0 0 615.105318 208.561695c-1.744334-0.948008-3.792031-1.28929-5.043401-3.223227 0 0 0-0.379203 0.265442-0.530884a2.844023 2.844023 0 0 1 0.568805-0.341283 130.559621 130.559621 0 0 1 64.464523 52.140424c17.898385 27.03718 26.127092 57.487187 30.336247 89.226485a418.640201 418.640201 0 0 1 2.844023 64.464524 1096.958673 1096.958673 0 0 0 13.57547 200.219226c-7.166938 14.144275-75.423493 20.363205-110.158495 20.514887-3.526589-1.365131-3.792031-16.836617-4.133313-19.68064-0.758406-5.650126 0.910087-11.376092 0.644645-16.874537-0.720486-3.564509 1.478892-5.953488 3.526588-8.418308a231.920604 231.920604 0 0 0 42.812028-78.608799c1.516812-4.853799 1.137609-10.541846 5.612206-14.295956a5.763887 5.763887 0 0 1 5.725966 0.492964c6.598134 3.526589 6.598134 3.526589 10.466005-3.299067a7.584062 7.584062 0 0 0 1.251371-3.792031c-1.554733-18.656792 4.171234-35.986372 9.442156-53.429714a104.129166 104.129166 0 0 0 2.844023-11.376092c0.530884-2.768182 0.720486-5.612206-2.161457-7.280699s-4.702118 0-6.711895 1.782254-3.185306 3.67827-5.877647 2.085617z" fill="#410E07" p-id="2760"></path><path d="M611.275367 618.935269c0-8.797511-0.265442-17.595023-0.417124-26.544216-2.388979-1.17553-3.792031 0.265442-5.346763 1.782255A214.515183 214.515183 0 0 1 587.764776 610.51696c-14.864761 12.28618-30.525848 23.207229-49.941046 27.0751a8.911272 8.911272 0 0 0-5.839728 3.488669 14.485558 14.485558 0 0 0-6.939416-3.450748 62.72019 62.72019 0 0 1-19.377277-6.598134 178.908014 178.908014 0 0 1-45.959414-34.128277c-2.085617-2.047697-3.792031-5.725967-7.811583-4.209154l-0.455044 26.544215c0 21.311213-4.247075 60.672493-16.267812 79.632647 24.799881 21.842097 66.057177 28.023108 91.008739 49.789365 1.782254 1.554733 2.957784 5.043401 6.560214 3.261146 1.744334-1.440972 3.526589-2.844023 5.233002-4.360835 24.344838-21.462894 68.521997-22.752185 92.904755-44.101318-11.451933-26.051252-19.68064-63.213154-19.604799-84.524367z" fill="#DEB088" p-id="2761"></path><path d="M522.200563 907.395053a8.380388 8.380388 0 0 1-16.722856 0.227521 8.266627 8.266627 0 0 1 8.56999-8.68375 8.152866 8.152866 0 0 1 8.152866 8.456229z" fill="#5D5959" p-id="2762"></path><path d="M522.200563 958.056584a8.380388 8.380388 0 0 1-16.722856-0.303362 8.380388 8.380388 0 1 1 16.722856 0.303362z" fill="#5E5959" p-id="2763"></path><path d="M514.578581 848.656495a7.584062 7.584062 0 0 1 7.584062 8.190787 7.811583 7.811583 0 0 1-7.963265 8.456229 8.418308 8.418308 0 0 1-8.683751-8.60791 8.494149 8.494149 0 0 1 9.062954-8.039106z" fill="#5D5959" p-id="2764"></path><path d="M664.287957 449.848615c1.782254-42.432825-12.854984-78.608799-41.712339-109.286328a105.115094 105.115094 0 0 0-28.36439-21.197452c-2.995704-1.592653-4.512517-1.782254-5.953488 2.009776-10.238483 26.544216-30.980892 43.835876-54.226041 58.548956l-5.308843 4.133313c-2.199378 1.21345-4.436676 2.351059-6.598134 3.792031a528.267812 528.267812 0 0 1-109.020886 45.50437c-4.702118 1.440972-6.067249 0.227522-5.763886-4.474596 0.455044-6.598134 0.530884-13.234188 0.758406-19.832321 0.265442-2.047697 2.123537-4.512517-1.403052-5.574286a105.8735 105.8735 0 0 0-7.204858 29.729522 154.259813 154.259813 0 0 0-0.530884 17.25374c0 1.327211 1.28929 3.792031-1.971856 3.564509-3.792031-11.717375-4.89172-24.079396-9.555918-35.569249-0.720486-0.872167-1.403051-1.782254-2.085617-2.692342-3.033625-3.792031-5.915568-8.342468-11.679455-5.877648s-5.763887 7.584062-4.322915 12.892905c2.161458 7.925344 4.019553 15.96445 6.749815 23.662272 5.308843 15.168123 4.740039 31.094653 7.584061 46.528218a49.296401 49.296401 0 0 1 16.836617 0.758406 20.363205 20.363205 0 0 1 1.289291 3.147386 226.990964 226.990964 0 0 0 50.168567 95.786698 139.01585 139.01585 0 0 0 22.486743 21.804177c16.874537 13.347948 34.46956 25.444527 56.880462 27.416383a81.18738 81.18738 0 0 0 21.121612-5.157162 170.110502 170.110502 0 0 0 58.283513-44.215079 230.062509 230.062509 0 0 0 42.053622-69.697526c3.564509-9.555918 6.256851-19.453118 9.328396-29.160717a5.991409 5.991409 0 0 0 1.25137-1.820175c1.782254-10.579766 0.948008-21.424974 3.526589-31.890979-0.341283-3.488668-4.626278-5.953488-2.616502-10.086802z" fill="#E8CDB6" p-id="2765"></path><path d="M399.528366 433.087839v24.724041c-2.919864-0.720486-2.616501-2.351059-2.50274-3.792031 2.4269-4.360835 0.568805-9.100874 1.25137-13.651311a18.543031 18.543031 0 0 1 1.25137-7.280699z" fill="#C39E8A" p-id="2766"></path><path d="M408.136276 408.932603c-0.796326-1.782254 0.265442-4.057473-1.403051-5.574286l1.32721-4.171234a11.376092 11.376092 0 0 1 0.075841 9.74552z" fill="#B58A78" p-id="2767"></path><path d="M662.012739 492.584802a82.324989 82.324989 0 0 1 2.313139-33.445711c-1.061769-2.161458 0.189602-3.792031 1.478892-5.233003 3.792031-11.717375 4.92964-24.117316 9.593838-35.569249a59.11776 59.11776 0 0 1 4.702118-5.877648c2.46482-2.4269 5.270923-4.626278 9.100874-2.730262a8.266627 8.266627 0 0 1 4.89172 9.593838 115.126055 115.126055 0 0 1-3.185306 13.310028c-5.157162 17.064139-10.503925 34.128277-10.238484 52.178344a40.385128 40.385128 0 0 1-1.516812 8.077026c-1.099689 0-2.388979 0.455044-3.223226-0.265442a7.584062 7.584062 0 0 0-10.693527 0 3.450748 3.450748 0 0 1-3.223226-0.037921z" fill="#E7CCB5" p-id="2768"></path><path d="M665.80477 453.906088c0.492964 2.047697-0.948008 3.488668-1.440972 5.233003a9.252555 9.252555 0 0 1 0-9.290476c0.644645 1.403051-0.341283 3.185306 1.440972 4.057473z" fill="#B08A79" p-id="2769"></path><path d="M520.494149 580.180714l9.8972 1.137609a15.168123 15.168123 0 0 1-9.8972-1.137609z" fill="#DABEAA" p-id="2770"></path><path d="M406.960747 736.526144h-1.630574c-0.720486-3.185306-5.536365-4.740039-5.574285-8.190786l-19.832321-17.860465c-0.758406-2.540661 2.351059-2.957784 4.019553-3.792031 14.220116-7.963265 28.516072-15.850689 42.774107-23.738113a9.214635 9.214635 0 0 1 9.480077 2.199378c26.544216 17.064139 52.026663 34.962524 78.191675 52.292105 5.688046 3.792031 10.200563 8.835432 17.974226 10.541845 16.533254-10.390164 32.270182-21.500815 48.424234-32.270182 15.509406-10.352244 30.639609-20.96993 46.490298-31.018812a8.873352 8.873352 0 0 1 8.797511-1.782254c14.295956 7.925344 28.629833 15.812768 42.812028 23.813953 1.744334 0.948008 4.777959 1.403051 4.095393 3.792031l-26.961339 24.837802c0 3.185306-4.209154 4.247075-5.650126 6.673974-7.584062 7.091098-15.168123 14.144275-22.410902 21.235372s-15.926529 14.78892-23.813953 22.221301c-12.28618 11.376092-24.231077 23.017627-36.668938 34.317879-6.029329 5.460524-7.015257 5.460524-10.845208-1.061769-4.398756-10.958969-8.228707-22.031699-13.082507-32.914827a2.047697 2.047697 0 0 1 0.417124-2.502741c-3.602429-8.721671-7.166938-17.443342-10.769368-26.127092-2.919864-3.564509-3.792031-0.303362-4.171234 0.985928-2.388979 5.119242-4.436676 10.314324-6.598133 15.471486-0.341283 7.963265-5.119242 15.168123-7.584062 22.524663s-5.612206 14.71308-8.60791 22.031699c-0.796326 1.933936-0.872167 4.133314-4.133313 4.777959-6.256851 0-8.266627-4.284995-11.148571-7.015257-15.509406-14.864761-31.435935-29.502-46.983262-44.32884-10.579766-9.82136-20.93201-19.794401-31.549696-29.615761-1.668494-1.896015-3.754111-3.564509-5.460524-5.498445z" fill="#F4F2F2" p-id="2771"></path><path d="M391.603022 492.508962m-10.048882 0a10.048882 10.048882 0 1 0 20.097763 0 10.048882 10.048882 0 1 0-20.097763 0Z" fill="#AF3E46" p-id="2772"></path><path d="M671.379055 492.508962m-10.048882 0a10.048882 10.048882 0 1 0 20.097764 0 10.048882 10.048882 0 1 0-20.097764 0Z" fill="#AF3E46" p-id="2773"></path></svg>