<?xml version="1.0" standalone="no"?><!DOCTYPE svg PUBLIC "-//W3C//DTD SVG 1.1//EN" "http://www.w3.org/Graphics/SVG/1.1/DTD/svg11.dtd"><svg t="1657471019357" class="icon" viewBox="0 0 1024 1024" version="1.1" xmlns="http://www.w3.org/2000/svg" p-id="8167" xmlns:xlink="http://www.w3.org/1999/xlink" width="200" height="200"><defs><style type="text/css">@font-face { font-family: feedback-iconfont; src: url("//at.alicdn.com/t/font_1031158_u69w8yhxdu.woff2?t=1630033759944") format("woff2"), url("//at.alicdn.com/t/font_1031158_u69w8yhxdu.woff?t=1630033759944") format("woff"), url("//at.alicdn.com/t/font_1031158_u69w8yhxdu.ttf?t=1630033759944") format("truetype"); }
</style></defs><path d="M0 0h1024v1024H0V0z" fill="#202425" opacity=".01" p-id="8168"></path><path d="M273.066667 477.866667A204.8 204.8 0 1 0 273.066667 68.266667a204.8 204.8 0 0 0 0 409.6z m580.266666-238.933334a68.266667 68.266667 0 1 0 0-136.533333 68.266667 68.266667 0 0 0 0 136.533333z" fill="#FFAA44" p-id="8169"></path><path d="M219.3408 345.053867A374.784 374.784 0 0 1 512 204.8a374.784 374.784 0 0 1 292.6592 140.253867c20.411733 5.905067 39.697067 12.424533 57.719467 19.490133 45.568 17.92 84.7872 40.072533 113.152 66.423467C1003.963733 457.386667 1024 490.496 1024 529.066667c0 38.570667-20.036267 71.68-48.469333 98.0992-28.3648 26.350933-67.584 48.503467-113.152 66.423466C771.003733 729.429333 647.168 750.933333 512 750.933333c-135.133867 0-259.003733-21.469867-350.378667-57.344-45.568-17.92-84.7872-40.072533-113.152-66.423466C20.036267 600.746667 0 567.637333 0 529.066667c0-38.570667 20.036267-71.68 48.469333-98.0992 28.3648-26.350933 67.584-48.503467 113.152-66.423467a660.138667 660.138667 0 0 1 57.685334-19.490133z m-54.613333 92.2624c-30.173867 13.687467-53.589333 28.603733-69.802667 43.690666C74.990933 499.5072 68.266667 515.822933 68.266667 529.066667c0 13.277867 6.724267 29.559467 26.624 48.059733a220.842667 220.842667 0 0 0 42.5984 30.0032 374.340267 374.340267 0 0 1 27.2384-169.813333z m721.783466 169.813333a220.842667 220.842667 0 0 0 42.564267-30.0032c19.933867-18.500267 26.658133-34.816 26.658133-48.059733 0-13.277867-6.724267-29.559467-26.624-48.059734-16.2816-15.086933-39.662933-30.0032-69.802666-43.690666a374.340267 374.340267 0 0 1 27.204266 169.813333zM512 955.733333a375.3984 375.3984 0 0 1-329.9328-196.096C276.138667 797.457067 390.0416 819.2 512 819.2c121.9584 0 235.861333-21.742933 329.9328-59.562667A375.3984 375.3984 0 0 1 512 955.733333z" fill="#11AA66" p-id="8170"></path><path d="M167.253333 729.258667A375.569067 375.569067 0 0 0 512 955.733333c154.4192 0 287.061333-93.218133 344.746667-226.474666C758.442667 764.484267 639.761067 785.066667 512 785.066667c-127.7952 0-246.442667-20.5824-344.746667-55.808z" fill="#FFAA44" p-id="8171"></path><path d="M648.533333 443.733333a68.266667 68.266667 0 1 0 0-136.533333 68.266667 68.266667 0 0 0 0 136.533333z m-238.933333 204.8a102.4 102.4 0 1 0 0-204.8 102.4 102.4 0 0 0 0 204.8z" fill="#FFFFFF" p-id="8172"></path></svg>